<svg xmlns="http://www.w3.org/2000/svg" width="1721.9999999999998" height="935.9999999999999">
 <!-- Created with Image Occlusion Enhanced -->
 <g>
  <title>Labels</title>
 </g>
 <g>
  <title>Masks</title>
  <g id="8f291f76333c4e60b6b168d9acea5ed6-ao-1">
   <rect height="59.09091" width="190.90909" y="368.54547" x="64.36365" stroke="#2D2D2D" fill="#FFEBA2"/>
   <rect height="25" width="229.54546" y="439.00001" x="39.36365" stroke="#2D2D2D" fill="#FFEBA2"/>
   <rect height="54.54546" width="213.63637" y="479.9091" x="37.09093" stroke="#2D2D2D" fill="#FFEBA2"/>
   <rect height="54.54546" width="211.36364" y="550.36365" x="55.27274" stroke="#2D2D2D" fill="#FFEBA2"/>
  </g>
  <g id="8f291f76333c4e60b6b168d9acea5ed6-ao-2">
   <rect height="79.54546" width="147.72727" y="316.27274" x="718.90911" stroke="#2D2D2D" fill="#FFEBA2"/>
   <rect height="29.54545" width="143.18182" y="395.81819" x="732.54548" stroke="#2D2D2D" fill="#FFEBA2"/>
   <rect height="38.63636" width="113.63636" y="439.00001" x="734.81821" stroke="#2D2D2D" fill="#FFEBA2"/>
  </g>
  <g id="8f291f76333c4e60b6b168d9acea5ed6-ao-3">
   <rect height="86.36364" width="120.45455" y="495.81819" x="728.00002" stroke="#2D2D2D" fill="#FFEBA2"/>
   <rect height="31.81818" width="95.45455" y="582.18183" x="728.00002" stroke="#2D2D2D" fill="#FFEBA2"/>
   <rect height="38.63636" width="95.45455" y="623.09092" x="734.81821" stroke="#2D2D2D" fill="#FFEBA2"/>
  </g>
  <g id="8f291f76333c4e60b6b168d9acea5ed6-ao-4">
   <rect height="90.90909" width="197.72727" y="50.36364" x="718.90911" stroke="#2D2D2D" fill="#FFEBA2"/>
   <rect height="22.72727" width="125" y="152.63637" x="730.27275" stroke="#2D2D2D" fill="#FFEBA2"/>
   <rect height="38.63636" width="179.54546" y="195.81819" x="725.7273" stroke="#2D2D2D" fill="#FFEBA2"/>
   <rect height="38.63636" width="175" y="234.45456" x="728.00002" stroke="#2D2D2D" fill="#FFEBA2"/>
  </g>
  <g id="8f291f76333c4e60b6b168d9acea5ed6-ao-5">
   <rect height="38.63636" width="209.09091" y="9.45455" x="1212.09094" stroke="#2D2D2D" fill="#FFEBA2"/>
   <rect height="29.54545" width="195.45455" y="64.00001" x="1225.7273" stroke="#2D2D2D" fill="#FFEBA2"/>
  </g>
  <g id="8f291f76333c4e60b6b168d9acea5ed6-ao-6">
   <rect height="79.54546" width="236.36364" y="182.18183" x="1203.00003" stroke="#2D2D2D" fill="#FFEBA2"/>
   <rect height="59.09091" width="218.18182" y="307.18183" x="1198.45457" stroke="#2D2D2D" fill="#FFEBA2"/>
  </g>
  <g id="8f291f76333c4e60b6b168d9acea5ed6-ao-7">
   <rect height="70.45455" width="177.27273" y="395.81819" x="1212.09094" stroke="#2D2D2D" fill="#FFEBA2"/>
   <rect height="50" width="172.72727" y="491.27274" x="1214.36366" stroke="#2D2D2D" fill="#FFEBA2"/>
  </g>
  <g id="8f291f76333c4e60b6b168d9acea5ed6-ao-8">
   <rect height="43.18182" width="231.81818" y="618.54547" x="1212.09094" stroke="#2D2D2D" fill="#FFEBA2"/>
   <rect height="36.36364" width="254.54546" y="732.18183" x="1214.36366" stroke="#2D2D2D" fill="#FFEBA2"/>
  </g>
  <g id="8f291f76333c4e60b6b168d9acea5ed6-ao-9">
   <rect height="56.81818" width="654.54546" y="864.00002" x="50.72729" stroke-linecap="null" stroke-linejoin="null" stroke-dasharray="null" stroke="#2D2D2D" fill="#FFEBA2"/>
   <rect height="47.72727" width="275" y="868.54547" x="762.09093" stroke-linecap="null" stroke-linejoin="null" stroke-dasharray="null" stroke="#2D2D2D" fill="#FFEBA2"/>
  </g>
  <g id="8f291f76333c4e60b6b168d9acea5ed6-ao-10">
   <rect height="88.63636" width="140.90909" y="620.8182" x="221.18184" stroke-linecap="null" stroke-linejoin="null" stroke-dasharray="null" stroke="#2D2D2D" fill="#FFEBA2"/>
   <rect height="81.81818" width="106.81818" y="643.54547" x="387.09093" stroke-linecap="null" stroke-linejoin="null" stroke-dasharray="null" stroke="#2D2D2D" fill="#FFEBA2"/>
  </g>
 </g>
</svg>