<svg xmlns="http://www.w3.org/2000/svg" width="1550" height="872">
 <!-- Created with Image Occlusion Enhanced -->
 <g>
  <title>Labels</title>
 </g>
 <g>
  <title>Masks</title>
  <g id="2feb7dd0ab7548f7a531d007233d71a7-ao-1" class="qshape">
   <rect height="20.68966" width="48.27586" y="200.41377" x="608.62069" stroke="#2D2D2D" fill="#FF7E7E" class="qshape"/>
   <rect height="13.7931" width="51.72414" y="214.20687" x="818.96552" stroke="#2D2D2D" fill="#FF7E7E" class="qshape"/>
   <rect height="37.93103" width="24.13793" y="252.13791" x="950" stroke="#2D2D2D" fill="#FF7E7E" class="qshape"/>
   <rect height="20.68966" width="44.82759" y="259.03446" x="746.55172" stroke="#2D2D2D" fill="#FF7E7E" class="qshape"/>
   <rect height="13.7931" width="44.82759" y="317.65515" x="701.72414" stroke="#2D2D2D" fill="#FF7E7E" class="qshape"/>
   <rect height="17.24138" width="44.82759" y="372.82756" x="708.62069" stroke="#2D2D2D" fill="#FF7E7E" class="qshape"/>
   <rect height="17.24138" width="51.72414" y="421.10342" x="701.72414" stroke="#2D2D2D" fill="#FF7E7E" class="qshape"/>
   <rect height="20.68966" width="51.72414" y="355.58618" x="587.93103" stroke="#2D2D2D" fill="#FF7E7E" class="qshape"/>
   <rect height="17.24138" width="58.62069" y="355.58618" x="863.7931" stroke="#2D2D2D" fill="#FF7E7E" class="qshape"/>
   <rect height="20.68966" width="31.03448" y="452.13791" x="743.10345" stroke="#2D2D2D" fill="#FF7E7E" class="qshape"/>
   <rect height="13.7931" width="34.48276" y="496.96549" x="601.72414" stroke="#2D2D2D" fill="#FF7E7E" class="qshape"/>
   <rect height="20.68966" width="58.62069" y="524.5517" x="774.13793" stroke="#2D2D2D" fill="#FF7E7E" class="qshape"/>
   <rect height="17.24138" width="48.27586" y="500.41377" x="867.24138" stroke="#2D2D2D" fill="#FF7E7E" class="qshape"/>
   <rect height="20.68966" width="48.27586" y="614.20687" x="870.68966" stroke="#2D2D2D" fill="#FF7E7E" class="qshape"/>
   <rect height="17.24138" width="48.27586" y="610.7586" x="674.13793" stroke="#2D2D2D" fill="#FF7E7E" class="qshape"/>
   <rect height="20.68966" width="37.93103" y="641.79308" x="639.65517" stroke="#2D2D2D" fill="#FF7E7E" class="qshape"/>
   <rect height="17.24138" width="27.58621" y="648.68963" x="774.13793" stroke="#2D2D2D" fill="#FF7E7E" class="qshape"/>
   <rect height="17.24138" width="27.58621" y="672.82756" x="736.2069" stroke="#2D2D2D" fill="#FF7E7E" class="qshape"/>
   <rect height="34.48276" width="231.03448" y="786.62066" x="505.17241" stroke="#2D2D2D" fill="#FF7E7E" class="qshape"/>
   <rect height="34.48276" width="58.62069" y="786.62066" x="125.86207" stroke="#2D2D2D" fill="#FF7E7E" class="qshape"/>
   <rect height="27.58621" width="79.31034" y="790.06894" x="784.48276" stroke="#2D2D2D" fill="#FF7E7E" class="qshape"/>
   <rect height="27.58621" width="155.17241" y="790.06894" x="1053.44828" stroke="#2D2D2D" fill="#FF7E7E" class="qshape"/>
  </g>
 </g>
</svg>