<svg xmlns="http://www.w3.org/2000/svg" width="1498" height="838">
 <!-- Created with Image Occlusion Enhanced -->
 <g>
  <title>Labels</title>
 </g>
 <g>
  <title>Masks</title>
  <g id="529492ea7db94121a2edf939ce47de33-ao-1">
   <rect height="34.42623" width="254.09836" y="201.34428" x="1064.29501" stroke="#2D2D2D" fill="#FFEBA2"/>
   <rect height="21.31148" width="206.55738" y="365.27871" x="516.75402" stroke="#2D2D2D" fill="#FFEBA2"/>
   <rect height="24.59016" width="222.95082" y="370.19674" x="833.14747" stroke="#2D2D2D" fill="#FFEBA2"/>
   <rect height="22.95082" width="267.21312" y="409.541" x="815.11468" stroke="#2D2D2D" fill="#FFEBA2"/>
   <rect height="34.42623" width="252.45902" y="383.31149" x="1080.68846" stroke="#2D2D2D" fill="#FFEBA2"/>
   <rect height="27.86885" width="60.65574" y="466.91805" x="1001.99993" stroke="#2D2D2D" fill="#FFEBA2"/>
   <rect height="42.62295" width="177.04918" y="540.68854" x="513.47533" stroke="#2D2D2D" fill="#FFEBA2"/>
   <rect height="29.5082" width="236.06558" y="621.01641" x="201.99992" stroke="#2D2D2D" fill="#FFEBA2"/>
   <rect height="31.14754" width="231.14754" y="671.83609" x="210.19664" stroke="#2D2D2D" fill="#FFEBA2"/>
   <rect height="34.42623" width="236.06558" y="650.52461" x="506.91796" stroke="#2D2D2D" fill="#FFEBA2"/>
   <rect height="73.77049" width="260.65574" y="606.26232" x="854.45895" stroke="#2D2D2D" fill="#FFEBA2"/>
   <rect height="26.22951" width="234.42623" y="698.0656" x="529.86878" stroke="#2D2D2D" fill="#FFEBA2"/>
   <rect height="34.42623" width="155.73771" y="765.27871" x="583.96714" stroke="#2D2D2D" fill="#FFEBA2"/>
   <rect height="32.78689" width="219.67213" y="770.19674" x="752.8196" stroke="#2D2D2D" fill="#FFEBA2"/>
   <rect height="26.22951" width="222.95082" y="763.63937" x="249.5409" stroke="#2D2D2D" fill="#FFEBA2"/>
   <rect height="27.86885" width="152.45902" y="760.36068" x="83.96713" stroke="#2D2D2D" fill="#FFEBA2"/>
   <rect height="31.14754" width="52.45902" y="399.70494" x="198.72123" stroke="#2D2D2D" fill="#FFEBA2"/>
   <rect height="29.5082" width="57.37705" y="165.2787" x="197.08189" stroke="#2D2D2D" fill="#FFEBA2"/>
   <rect height="27.86885" width="139.34426" y="271.83608" x="211.83599" stroke="#2D2D2D" fill="#FFEBA2"/>
  </g>
 </g>
</svg>