<svg xmlns="http://www.w3.org/2000/svg" width="1306" height="1094">
 <!-- Created with Image Occlusion Enhanced -->
 <g>
  <title>Labels</title>
 </g>
 <g>
  <title>Masks</title>
  <g id="529f04b338ed4ca0b454944bbf06ae2a-ao-1" class="qshape">
   <rect height="27.02703" width="45.94595" y="422.21622" x="1191.29729" stroke="#2D2D2D" fill="#FF7E7E" class="qshape"/>
   <rect height="21.62162" width="70.27027" y="424.91892" x="1107.51351" stroke="#2D2D2D" fill="#FF7E7E" class="qshape"/>
   <rect height="32.43243" width="175.67568" y="419.51352" x="737.24324" stroke="#2D2D2D" fill="#FF7E7E" class="qshape"/>
   <rect height="32.43243" width="135.13514" y="549.24325" x="437.24324" stroke="#2D2D2D" fill="#FF7E7E" class="qshape"/>
   <rect height="24.32432" width="145.94595" y="657.35136" x="894" stroke="#2D2D2D" fill="#FF7E7E" class="qshape"/>
   <rect height="32.43243" width="132.43243" y="654.64865" x="1126.43243" stroke="#2D2D2D" fill="#FF7E7E" class="qshape"/>
   <rect height="32.43243" width="224.32433" y="814.10811" x="853.45946" stroke="#2D2D2D" fill="#FF7E7E" class="qshape"/>
   <rect height="24.32432" width="137.83784" y="970.86487" x="894" stroke="#2D2D2D" fill="#FF7E7E" class="qshape"/>
   <rect height="24.32432" width="167.56757" y="335.72973" x="421.02702" stroke="#2D2D2D" fill="#FF7E7E" class="qshape"/>
   <rect height="32.43243" width="140.54054" y="422.21622" x="512.91891" stroke="#2D2D2D" fill="#FF7E7E" class="qshape"/>
   <rect height="27.02703" width="237.83784" y="422.21622" x="115.62162" stroke="#2D2D2D" fill="#FF7E7E" class="qshape"/>
   <rect height="24.32432" width="110.81081" y="778.97298" x="191.29729" stroke="#2D2D2D" fill="#FF7E7E" class="qshape"/>
   <rect height="21.62162" width="94.59459" y="806.00001" x="196.7027" stroke="#2D2D2D" fill="#FF7E7E" class="qshape"/>
   <rect height="18.91892" width="100" y="833.02703" x="196.7027" stroke="#2D2D2D" fill="#FF7E7E" class="qshape"/>
   <rect height="24.32432" width="127.02703" y="806.00001" x="385.89189" stroke-linecap="null" stroke-linejoin="null" stroke-dasharray="null" stroke="#2D2D2D" fill="#FF7E7E" class="qshape"/>
   <rect height="18.91892" width="124.32432" y="835.72974" x="383.18918" stroke-linecap="null" stroke-linejoin="null" stroke-dasharray="null" stroke="#2D2D2D" fill="#FF7E7E" class="qshape"/>
   <rect height="21.62162" width="100" y="854.64865" x="450.75675" stroke-linecap="null" stroke-linejoin="null" stroke-dasharray="null" stroke="#2D2D2D" fill="#FF7E7E" class="qshape"/>
   <rect height="21.62162" width="148.64865" y="965.45947" x="426.43243" stroke-linecap="null" stroke-linejoin="null" stroke-dasharray="null" stroke="#2D2D2D" fill="#FF7E7E" class="qshape"/>
   <rect height="18.91892" width="121.62162" y="995.1892" x="434.54053" stroke-linecap="null" stroke-linejoin="null" stroke-dasharray="null" stroke="#2D2D2D" fill="#FF7E7E" class="qshape"/>
   <rect height="27.02703" width="94.59459" y="1022.21622" x="499.4054" stroke-linecap="null" stroke-linejoin="null" stroke-dasharray="null" stroke="#2D2D2D" fill="#FF7E7E" class="qshape"/>
  </g>
 </g>
</svg>