<svg xmlns="http://www.w3.org/2000/svg" width="1542" height="874">
 <!-- Created with Image Occlusion Enhanced -->
 <g>
  <title>Labels</title>
 </g>
 <g>
  <title>Masks</title>
  <g id="625ef5cbdc61462e90e625534ffc64fa-ao-1">
   <rect height="44.0678" width="49.15254" y="571.76279" x="232.57617" stroke="#2D2D2D" fill="#FFEBA2"/>
   <rect height="42.37288" width="37.28814" y="632.77974" x="237.66091" stroke="#2D2D2D" fill="#FFEBA2"/>
   <rect height="45.76271" width="54.23729" y="692.10178" x="229.18634" stroke="#2D2D2D" fill="#FFEBA2"/>
   <rect height="32.20339" width="216.94916" y="195.49158" x="468.1694" stroke="#2D2D2D" fill="#FFEBA2"/>
   <rect height="32.20339" width="262.71188" y="195.49158" x="952.91519" stroke="#2D2D2D" fill="#FFEBA2"/>
   <rect height="30.50848" width="196.61018" y="329.38989" x="113.93209" stroke="#2D2D2D" fill="#FFEBA2"/>
   <rect height="32.20339" width="108.47458" y="366.67803" x="351.22024" stroke="#2D2D2D" fill="#FFEBA2"/>
   <rect height="25.42373" width="84.74577" y="409.05091" x="115.62701" stroke="#2D2D2D" fill="#FFEBA2"/>
   <rect height="30.50848" width="115.25424" y="364.98312" x="473.25415" stroke="#2D2D2D" fill="#FFEBA2"/>
   <rect height="32.20339" width="44.0678" y="363.2882" x="602.06771" stroke="#2D2D2D" fill="#FFEBA2"/>
   <rect height="28.81356" width="69.49153" y="442.94922" x="524.10161" stroke="#2D2D2D" fill="#FFEBA2"/>
   <rect height="28.81356" width="37.28814" y="448.03397" x="473.25415" stroke="#2D2D2D" fill="#FFEBA2"/>
   <rect height="35.59322" width="247.45764" y="398.88142" x="954.6101" stroke="#2D2D2D" fill="#FFEBA2"/>
   <rect height="30.50848" width="481.35596" y="326.00006" x="951.22027" stroke="#2D2D2D" fill="#FFEBA2"/>
   <rect height="30.50848" width="123.72882" y="366.67803" x="1325.79656" stroke="#2D2D2D" fill="#FFEBA2"/>
   <rect height="32.20339" width="186.44069" y="287.01701" x="474.94906" stroke="#2D2D2D" fill="#FFEBA2"/>
   <rect height="32.20339" width="166.1017" y="288.71192" x="673.25416" stroke="#2D2D2D" fill="#FFEBA2"/>
   <rect height="47.45763" width="238.98306" y="564.98313" x="956.30502" stroke="#2D2D2D" fill="#FFEBA2"/>
   <rect height="40.67797" width="113.55933" y="568.37296" x="1222.40673" stroke="#2D2D2D" fill="#FFEBA2"/>
   <rect height="38.98305" width="83.05085" y="568.37296" x="1369.86436" stroke="#2D2D2D" fill="#FFEBA2"/>
   <rect height="37.28814" width="244.06781" y="690.40686" x="956.30502" stroke="#2D2D2D" fill="#FFEBA2"/>
   <rect height="45.76271" width="72.88136" y="688.71195" x="1229.18639" stroke="#2D2D2D" fill="#FFEBA2"/>
   <rect height="30.50848" width="50.84746" y="737.86449" x="1132.57622" stroke="#2D2D2D" fill="#FFEBA2"/>
   <rect height="25.42373" width="52.54238" y="741.25432" x="1064.7796" stroke="#2D2D2D" fill="#FFEBA2"/>
  </g>
 </g>
</svg>