<svg xmlns="http://www.w3.org/2000/svg" width="1498" height="842">
 <!-- Created with Image Occlusion Enhanced -->
 <g>
  <title>Labels</title>
 </g>
 <g>
  <title>Masks</title>
  <g id="6b0bfbfc19fc4250aa8c5c44e4b3545a-ao-1">
   <rect height="27.86885" width="129.5082" y="735.0492" x="303.63927" stroke="#2D2D2D" fill="#FFEBA2"/>
   <rect height="26.22951" width="163.93443" y="546.5246" x="303.63927" stroke="#2D2D2D" fill="#FFEBA2"/>
   <rect height="31.14754" width="126.22951" y="438.32788" x="301.99992" stroke="#2D2D2D" fill="#FFEBA2"/>
   <rect height="27.86885" width="147.54099" y="300.62296" x="305.27861" stroke="#2D2D2D" fill="#FFEBA2"/>
   <rect height="24.59016" width="154.09836" y="64.55739" x="301.99992" stroke="#2D2D2D" fill="#FFEBA2"/>
   <rect height="24.59016" width="185.2459" y="61.2787" x="506.91796" stroke="#2D2D2D" fill="#FFEBA2"/>
   <rect height="22.95082" width="29.5082" y="62.91804" x="703.63927" stroke="#2D2D2D" fill="#FFEBA2"/>
   <rect height="24.59016" width="144.2623" y="89.14755" x="510.19665" stroke="#2D2D2D" fill="#FFEBA2"/>
   <rect height="24.59016" width="319.67213" y="298.98362" x="505.27861" stroke="#2D2D2D" fill="#FFEBA2"/>
   <rect height="24.59016" width="134.42623" y="328.49181" x="593.80321" stroke="#2D2D2D" fill="#FFEBA2"/>
   <rect height="22.95082" width="60.65574" y="326.85247" x="510.19665" stroke="#2D2D2D" fill="#FFEBA2"/>
   <rect height="27.86885" width="301.63935" y="438.32788" x="506.91796" stroke="#2D2D2D" fill="#FFEBA2"/>
   <rect height="19.67213" width="116.39344" y="469.47542" x="569.21304" stroke="#2D2D2D" fill="#FFEBA2"/>
   <rect height="22.95082" width="36.06557" y="469.47542" x="513.47534" stroke="#2D2D2D" fill="#FFEBA2"/>
   <rect height="26.22951" width="300" y="544.88526" x="505.27861" stroke="#2D2D2D" fill="#FFEBA2"/>
   <rect height="24.59016" width="37.70492" y="576.0328" x="513.47534" stroke="#2D2D2D" fill="#FFEBA2"/>
   <rect height="24.59016" width="214.7541" y="644.88526" x="505.27861" stroke="#2D2D2D" fill="#FFEBA2"/>
   <rect height="27.86885" width="26.22951" y="641.60657" x="729.86878" stroke="#2D2D2D" fill="#FFEBA2"/>
   <rect height="24.59016" width="93.44262" y="735.0492" x="506.91796" stroke="#2D2D2D" fill="#FFEBA2"/>
   <rect height="19.67213" width="40.98361" y="738.32788" x="610.19665" stroke="#2D2D2D" fill="#FFEBA2"/>
   <rect height="78.68853" width="657.37706" y="641.60657" x="833.14747" stroke="#2D2D2D" fill="#FFEBA2"/>
   <rect height="24.59016" width="657.37706" y="736.68854" x="833.14747" stroke="#2D2D2D" fill="#FFEBA2"/>
   <rect height="52.45902" width="565.57378" y="548.16395" x="833.14747" stroke="#2D2D2D" fill="#FFEBA2"/>
   <rect height="62.29508" width="649.18033" y="438.32788" x="834.78681" stroke="#2D2D2D" fill="#FFEBA2"/>
   <rect height="54.09836" width="634.42624" y="298.98362" x="831.50813" stroke="#2D2D2D" fill="#FFEBA2"/>
   <rect height="136.06558" width="652.45902" y="62.91804" x="834.78681" stroke="#2D2D2D" fill="#FFEBA2"/>
  </g>
 </g>
</svg>