<svg xmlns="http://www.w3.org/2000/svg" width="1346" height="1142">
 <!-- Created with Image Occlusion Enhanced -->
 <g>
  <title>Labels</title>
 </g>
 <g>
  <title>Masks</title>
  <g id="6bbe2300fce64db4b8b4703560c94d17-ao-1" class="qshape">
   <rect height="46.66667" width="53.33333" y="137.99993" x="985.11106" stroke="#2D2D2D" fill="#FF7E7E" class="qshape"/>
   <rect height="57.77778" width="55.55555" y="131.33326" x="1065.11106" stroke="#2D2D2D" fill="#FF7E7E" class="qshape"/>
   <rect height="193.33333" width="62.22222" y="300.22215" x="980.66662" stroke="#2D2D2D" fill="#FF7E7E" class="qshape"/>
   <rect height="191.11111" width="64.44444" y="302.44437" x="1080.66662" stroke="#2D2D2D" fill="#FF7E7E" class="qshape"/>
   <rect height="53.33333" width="51.11111" y="526.88881" x="989.55551" stroke="#2D2D2D" fill="#FF7E7E" class="qshape"/>
   <rect height="55.55555" width="51.11111" y="526.88881" x="1067.33328" stroke="#2D2D2D" fill="#FF7E7E" class="qshape"/>
   <rect height="53.33333" width="55.55555" y="706.8888" x="987.33329" stroke="#2D2D2D" fill="#FF7E7E" class="qshape"/>
   <rect height="57.77778" width="53.33333" y="766.8888" x="1067.33328" stroke="#2D2D2D" fill="#FF7E7E" class="qshape"/>
   <rect height="55.55555" width="53.33333" y="769.11103" x="987.33329" stroke="#2D2D2D" fill="#FF7E7E" class="qshape"/>
   <rect height="66.66667" width="57.77778" y="849.11102" x="982.88884" stroke="#2D2D2D" fill="#FF7E7E" class="qshape"/>
   <rect height="46.66667" width="53.33333" y="971.33324" x="985.11106" stroke="#2D2D2D" fill="#FF7E7E" class="qshape"/>
   <rect height="55.55555" width="48.88889" y="966.8888" x="1065.11106" stroke="#2D2D2D" fill="#FF7E7E" class="qshape"/>
   <rect height="57.77778" width="51.11111" y="960.22213" x="1138.44439" stroke="#2D2D2D" fill="#FF7E7E" class="qshape"/>
   <rect height="60" width="53.33333" y="962.44436" x="1207.33328" stroke="#2D2D2D" fill="#FF7E7E" class="qshape"/>
   <rect height="62.22222" width="55.55555" y="1049.11102" x="1205.11106" stroke="#2D2D2D" fill="#FF7E7E" class="qshape"/>
   <rect height="57.77778" width="51.11111" y="1051.33324" x="1136.22217" stroke="#2D2D2D" fill="#FF7E7E" class="qshape"/>
   <rect height="53.33333" width="55.55555" y="1055.77769" x="1065.11106" stroke="#2D2D2D" fill="#FF7E7E" class="qshape"/>
   <rect height="55.55555" width="53.33333" y="1055.77769" x="987.33329" stroke="#2D2D2D" fill="#FF7E7E" class="qshape"/>
  </g>
 </g>
</svg>