<svg xmlns="http://www.w3.org/2000/svg" width="1108" height="872">
 <!-- Created with Image Occlusion Enhanced -->
 <g>
  <title>Labels</title>
 </g>
 <g>
  <title>Masks</title>
  <g id="70d304eb41ac4565a7839e942575fb46-ao-1" class="qshape">
   <rect height="41.37931" width="96.55172" y="83.1724" x="881.65513" stroke="#2D2D2D" fill="#FF7E7E" class="qshape"/>
   <rect height="68.96552" width="186.20689" y="148.68964" x="867.86203" stroke="#2D2D2D" fill="#FF7E7E" class="qshape"/>
   <rect height="34.48276" width="158.62069" y="227.99998" x="878.20685" stroke="#2D2D2D" fill="#FF7E7E" class="qshape"/>
   <rect height="31.03448" width="158.62069" y="286.62067" x="874.75858" stroke="#2D2D2D" fill="#FF7E7E" class="qshape"/>
   <rect height="31.03448" width="203.44827" y="341.79308" x="874.75858" stroke="#2D2D2D" fill="#FF7E7E" class="qshape"/>
   <rect height="31.03448" width="148.27586" y="379.72411" x="888.55168" stroke="#2D2D2D" fill="#FF7E7E" class="qshape"/>
   <rect height="27.58621" width="120.68965" y="421.10342" x="871.3103" stroke="#2D2D2D" fill="#FF7E7E" class="qshape"/>
   <rect height="68.96552" width="200" y="462.48273" x="864.41375" stroke="#2D2D2D" fill="#FF7E7E" class="qshape"/>
   <rect height="68.96552" width="203.44827" y="552.1379" x="871.3103" stroke="#2D2D2D" fill="#FF7E7E" class="qshape"/>
   <rect height="37.93103" width="186.20689" y="634.89652" x="874.75858" stroke="#2D2D2D" fill="#FF7E7E" class="qshape"/>
   <rect height="37.93103" width="196.55172" y="710.75859" x="878.20685" stroke="#2D2D2D" fill="#FF7E7E" class="qshape"/>
   <rect height="44.82759" width="134.48276" y="776.27583" x="871.3103" stroke="#2D2D2D" fill="#FF7E7E" class="qshape"/>
   <rect height="75.86207" width="151.72414" y="700.41376" x="50.62066" stroke="#2D2D2D" fill="#FF7E7E" class="qshape"/>
   <rect height="86.20689" width="265.51724" y="583.17239" x="33.37928" stroke="#2D2D2D" fill="#FF7E7E" class="qshape"/>
   <rect height="51.72414" width="224.13793" y="486.62066" x="50.62066" stroke="#2D2D2D" fill="#FF7E7E" class="qshape"/>
   <rect height="55.17241" width="251.72413" y="400.41377" x="47.17239" stroke="#2D2D2D" fill="#FF7E7E" class="qshape"/>
   <rect height="31.03448" width="134.48276" y="352.13791" x="50.62066" stroke="#2D2D2D" fill="#FF7E7E" class="qshape"/>
   <rect height="37.93103" width="186.20689" y="286.62067" x="43.72411" stroke="#2D2D2D" fill="#FF7E7E" class="qshape"/>
   <rect height="75.86207" width="182.75862" y="159.03446" x="50.62066" stroke="#2D2D2D" fill="#FF7E7E" class="qshape"/>
   <rect height="27.58621" width="127.5862" y="238.34481" x="64.41376" stroke="#2D2D2D" fill="#FF7E7E" class="qshape"/>
   <rect height="34.48276" width="248.27586" y="114.20688" x="50.62066" stroke="#2D2D2D" fill="#FF7E7E" class="qshape"/>
  </g>
 </g>
</svg>