<svg xmlns="http://www.w3.org/2000/svg" width="1484" height="850">
 <!-- Created with Image Occlusion Enhanced -->
 <g>
  <title>Labels</title>
 </g>
 <g>
  <title>Masks</title>
  <g id="733c49d5783e4816a21b8b3bb29f3ba7-ao-1" class="qshape">
   <rect height="23.33333" width="130" y="451.66667" x="145.99994" stroke="#2D2D2D" fill="#FF7E7E" class="qshape"/>
   <rect height="26.66667" width="136.66667" y="680" x="194.33327" stroke="#2D2D2D" fill="#FF7E7E" class="qshape"/>
   <rect height="23.33333" width="103.33333" y="708.33333" x="185.99994" stroke="#2D2D2D" fill="#FF7E7E" class="qshape"/>
   <rect height="23.33333" width="160" y="683.33333" x="512.66661" stroke="#2D2D2D" fill="#FF7E7E" class="qshape"/>
   <rect height="30" width="140" y="580" x="672.66661" stroke="#2D2D2D" fill="#FF7E7E" class="qshape"/>
   <rect height="28.33333" width="155" y="463.33333" x="889.33327" stroke="#2D2D2D" fill="#FF7E7E" class="qshape"/>
   <rect height="50" width="105" y="681.66667" x="914.33327" stroke="#2D2D2D" fill="#FF7E7E" class="qshape"/>
   <rect height="30" width="33.33333" y="340" x="515.99994" stroke="#2D2D2D" fill="#FF7E7E" class="qshape"/>
   <rect height="26.66667" width="78.33333" y="363.33333" x="589.33327" stroke="#2D2D2D" fill="#FF7E7E" class="qshape"/>
   <rect height="25" width="26.66667" y="231.66667" x="520.99994" stroke="#2D2D2D" fill="#FF7E7E" class="qshape"/>
   <rect height="21.66667" width="161.66667" y="253.33333" x="549.33327" stroke="#2D2D2D" fill="#FF7E7E" class="qshape"/>
   <rect height="28.33333" width="28.33333" y="120" x="520.99994" stroke="#2D2D2D" fill="#FF7E7E" class="qshape"/>
   <rect height="21.66667" width="60" y="146.66667" x="619.33327" stroke="#2D2D2D" fill="#FF7E7E" class="qshape"/>
   <rect height="46.66667" width="103.33333" y="113.33333" x="914.33327" stroke="#2D2D2D" fill="#FF7E7E" class="qshape"/>
   <rect height="50" width="170" y="195" x="884.33327" stroke="#2D2D2D" fill="#FF7E7E" class="qshape"/>
   <rect height="51.66667" width="118.33333" y="278.33333" x="909.33327" stroke="#2D2D2D" fill="#FF7E7E" class="qshape"/>
   <rect height="21.66667" width="70" y="466.66667" x="552.66661" stroke="#2D2D2D" fill="#FF7E7E" class="qshape"/>
   <rect height="46.66667" width="145" y="153.33333" x="185.99994" stroke="#2D2D2D" fill="#FF7E7E" class="qshape"/>
  </g>
 </g>
</svg>