<svg xmlns="http://www.w3.org/2000/svg" width="1444" height="812">
 <!-- Created with Image Occlusion Enhanced -->
 <g>
  <title>Labels</title>
 </g>
 <g>
  <title>Masks</title>
  
  <g id="824a1dcd485d474ca8300288547f253b-ao-1">
   <rect height="38.09524" width="293.6508" y="184.8254" x="36.95243" stroke="#2D2D2D" fill="#FFEBA2"/>
   <rect height="17.46032" width="80.95238" y="397.52382" x="514.73022" stroke="#2D2D2D" fill="#FFEBA2"/>
   <rect height="12.69841" width="84.12699" y="264.19048" x="516.31752" stroke="#2D2D2D" fill="#FFEBA2"/>
   <rect height="33.33333" width="204.76191" y="227.68254" x="36.95243" stroke="#2D2D2D" fill="#FFEBA2"/>
   <rect height="33.33333" width="209.52382" y="270.53968" x="35.36513" stroke="#2D2D2D" fill="#FFEBA2"/>
   <rect height="22.22222" width="136.50794" y="459.42858" x="462.34927" stroke="#2D2D2D" fill="#FFEBA2"/>
   <rect height="26.98413" width="365.07938" y="314.98413" x="35.36513" stroke="#2D2D2D" fill="#FFEBA2"/>
   <rect height="30.15873" width="446.03176" y="346.73016" x="36.95243" stroke="#2D2D2D" fill="#FFEBA2"/>
   <rect height="60.31746" width="396.82541" y="388.00001" x="38.53973" stroke="#2D2D2D" fill="#FFEBA2"/>
   <rect height="19.04762" width="93.6508" y="349.90477" x="502.03181" stroke="#2D2D2D" fill="#FFEBA2"/>
   <rect height="28.57143" width="452.38097" y="500.69842" x="48.06354" stroke="#2D2D2D" fill="#FFEBA2"/>
   <rect height="25.39683" width="60.31746" y="530.85715" x="46.47624" stroke="#2D2D2D" fill="#FFEBA2"/>
   <rect height="25.39683" width="173.01588" y="532.44445" x="298.8572" stroke="#2D2D2D" fill="#FFEBA2"/>
   <rect height="20.63492" width="119.04762" y="562.60319" x="92.50799" stroke="#2D2D2D" fill="#FFEBA2"/>
   <rect height="28.57143" width="198.4127" y="626.09525" x="59.17465" stroke="#2D2D2D" fill="#FFEBA2"/>
   <rect height="26.98413" width="100" y="624.50795" x="397.2699" stroke="#2D2D2D" fill="#FFEBA2"/>
   <rect height="20.63492" width="69.84127" y="657.84128" x="40.12703" stroke="#2D2D2D" fill="#FFEBA2"/>
   <rect height="28.57143" width="182.53969" y="656.25398" x="317.90482" stroke="#2D2D2D" fill="#FFEBA2"/>
   <rect height="25.39683" width="122.22223" y="684.82541" x="332.19053" stroke="#2D2D2D" fill="#FFEBA2"/>
   <rect height="31.74603" width="146.03175" y="710.22224" x="38.53973" stroke="#2D2D2D" fill="#FFEBA2"/>
  </g>
 </g>
</svg>