<svg xmlns="http://www.w3.org/2000/svg" width="1240" height="844.0000000000001">
 <!-- Created with Image Occlusion Enhanced -->
 <g>
  <title>Labels</title>
 </g>
 <g>
  <title>Masks</title>
  <g id="85a0804942bc4796941f19bcb5f49569-ao-1" class="qshape">
   <rect height="28.07018" width="112.2807" y="82.31582" x="84.56142" stroke="#2D2D2D" fill="#FF7E7E" class="qshape"/>
   <rect height="35.08772" width="119.29825" y="84.0702" x="481.05266" stroke="#2D2D2D" fill="#FF7E7E" class="qshape"/>
   <rect height="29.82456" width="66.66667" y="84.0702" x="612.63161" stroke="#2D2D2D" fill="#FF7E7E" class="qshape"/>
   <rect height="35.08772" width="124.56141" y="115.64915" x="79.29826" stroke="#2D2D2D" fill="#FF7E7E" class="qshape"/>
   <rect height="24.5614" width="24.5614" y="196.35091" x="170.52634" stroke="#2D2D2D" fill="#FF7E7E" class="qshape"/>
   <rect height="38.59649" width="180.70176" y="187.57898" x="289.82458" stroke="#2D2D2D" fill="#FF7E7E" class="qshape"/>
   <rect height="31.57895" width="108.77193" y="294.59652" x="503.85968" stroke="#2D2D2D" fill="#FF7E7E" class="qshape"/>
   <rect height="29.82456" width="91.22807" y="347.2281" x="505.61406" stroke="#2D2D2D" fill="#FF7E7E" class="qshape"/>
   <rect height="28.07018" width="192.98246" y="378.80705" x="521.40354" stroke="#2D2D2D" fill="#FF7E7E" class="qshape"/>
   <rect height="24.5614" width="166.66667" y="468.28074" x="542.45617" stroke="#2D2D2D" fill="#FF7E7E" class="qshape"/>
   <rect height="21.05263" width="78.94737" y="503.36846" x="568.77196" stroke="#2D2D2D" fill="#FF7E7E" class="qshape"/>
   <rect height="28.07018" width="70.17544" y="540.21056" x="530.17547" stroke="#2D2D2D" fill="#FF7E7E" class="qshape"/>
   <rect height="22.80702" width="49.12281" y="543.71934" x="670.52635" stroke="#2D2D2D" fill="#FF7E7E" class="qshape"/>
   <rect height="21.05263" width="94.73684" y="591.08776" x="565.26319" stroke="#2D2D2D" fill="#FF7E7E" class="qshape"/>
   <rect height="24.5614" width="147.36843" y="636.7018" x="545.96494" stroke="#2D2D2D" fill="#FF7E7E" class="qshape"/>
   <rect height="33.33333" width="198.24562" y="738.45618" x="514.38599" stroke="#2D2D2D" fill="#FF7E7E" class="qshape"/>
  </g>
 </g>
</svg>