<svg xmlns="http://www.w3.org/2000/svg" width="1494" height="844">
 <!-- Created with Image Occlusion Enhanced -->
 <g>
  <title>Labels</title>
 </g>
 <g>
  <title>Masks</title>
  <g id="8c4629fa9f864e7c85ee959ca6c85eaa-ao-1">
   <rect height="32.25806" width="219.35483" y="681.80637" x="70.51608" stroke="#2D2D2D" fill="#FFEBA2"/>
   <rect height="22.58064" width="90.32258" y="685.03218" x="644.70961" stroke="#2D2D2D" fill="#FFEBA2"/>
   <rect height="22.58064" width="96.77419" y="720.51605" x="205.99995" stroke="#2D2D2D" fill="#FFEBA2"/>
   <rect height="25.80645" width="329.03225" y="720.51605" x="315.67736" stroke="#2D2D2D" fill="#FFEBA2"/>
   <rect height="32.25806" width="293.54838" y="749.54831" x="167.29027" stroke="#2D2D2D" fill="#FFEBA2"/>
   <rect height="25.80645" width="74.19355" y="785.03218" x="176.96769" stroke="#2D2D2D" fill="#FFEBA2"/>
   <rect height="29.03226" width="41.93548" y="781.80637" x="73.74189" stroke="#2D2D2D" fill="#FFEBA2"/>
  </g>
  <g id="8c4629fa9f864e7c85ee959ca6c85eaa-ao-2" class="qshape">
   <rect height="32.25806" width="238.70967" y="472.23648" x="1141.48379" stroke="#2D2D2D" fill="#FF7E7E" class="qshape"/>
   <rect height="32.25806" width="183.87096" y="504.49455" x="1228.58056" stroke="#2D2D2D" fill="#FF7E7E" class="qshape"/>
   <rect height="22.58064" width="119.35483" y="539.97842" x="1035.03218" stroke="#2D2D2D" fill="#FF7E7E" class="qshape"/>
   <rect height="35.48387" width="90.32258" y="569.01067" x="1167.29024" stroke="#2D2D2D" fill="#FF7E7E" class="qshape"/>
   <rect height="26.66667" width="180" y="226.00001" x="1032.66661" stroke-linecap="null" stroke-linejoin="null" stroke-dasharray="null" stroke="#2D2D2D" fill="#FF7E7E" class="qshape"/>
   <rect height="30" width="76.66667" y="262.66668" x="1039.33328" stroke-linecap="null" stroke-linejoin="null" stroke-dasharray="null" stroke="#2D2D2D" fill="#FF7E7E" class="qshape"/>
   <rect height="33.33333" width="63.33333" y="296.00001" x="1352.66661" stroke-linecap="null" stroke-linejoin="null" stroke-dasharray="null" stroke="#2D2D2D" fill="#FF7E7E" class="qshape"/>
   <rect height="23.33333" width="216.66667" y="332.66668" x="1035.99994" stroke-linecap="null" stroke-linejoin="null" stroke-dasharray="null" stroke="#2D2D2D" fill="#FF7E7E" class="qshape"/>
   <rect height="33.33333" width="166.66667" y="359.33335" x="1149.33328" stroke-linecap="null" stroke-linejoin="null" stroke-dasharray="null" stroke="#2D2D2D" fill="#FF7E7E" class="qshape"/>
   <rect height="23.33333" width="86.66667" y="399.33335" x="1065.99994" stroke-linecap="null" stroke-linejoin="null" stroke-dasharray="null" stroke="#2D2D2D" fill="#FF7E7E" class="qshape"/>
   <rect height="33.33333" width="220" y="429.33335" x="1209.33328" stroke-linecap="null" stroke-linejoin="null" stroke-dasharray="null" stroke="#2D2D2D" fill="#FF7E7E" class="qshape"/>
  </g>
 </g>
</svg>