<svg xmlns="http://www.w3.org/2000/svg" width="1292" height="798">
 <!-- Created with Image Occlusion Enhanced -->
 <g>
  <title>Labels</title>
 </g>
 <g>
  <title>Masks</title>
  <g id="8f0e1f967b854c4baa7e5da54a64fa97-ao-1">
   <rect height="25" width="109.375" y="181.6875" x="159.56249" stroke="#2D2D2D" fill="#FFEBA2"/>
   <rect height="23.4375" width="207.8125" y="250.4375" x="93.93749" stroke="#2D2D2D" fill="#FFEBA2"/>
   <rect height="28.125" width="96.875" y="311.375" x="140.81249" stroke="#2D2D2D" fill="#FFEBA2"/>
   <rect height="20.3125" width="85.9375" y="509.8125" x="103.31249" stroke="#2D2D2D" fill="#FFEBA2"/>
   <rect height="21.875" width="123.4375" y="536.375" x="92.37499" stroke="#2D2D2D" fill="#FFEBA2"/>
   <rect height="20.3125" width="62.5" y="539.5" x="864.24999" stroke="#2D2D2D" fill="#FFEBA2"/>
   <rect height="25" width="92.1875" y="566.0625" x="851.74999" stroke="#2D2D2D" fill="#FFEBA2"/>
   <rect height="23.4375" width="110.9375" y="534.8125" x="1050.18749" stroke="#2D2D2D" fill="#FFEBA2"/>
   <rect height="21.875" width="176.5625" y="564.5" x="1001.74999" stroke="#2D2D2D" fill="#FFEBA2"/>
   <rect height="21.875" width="128.125" y="622.3125" x="847.06249" stroke="#2D2D2D" fill="#FFEBA2"/>
   <rect height="20.3125" width="159.375" y="312.9375" x="857.99999" stroke="#2D2D2D" fill="#FFEBA2"/>
   <rect height="21.875" width="101.5625" y="342.625" x="889.24999" stroke="#2D2D2D" fill="#FFEBA2"/>
   <rect height="23.4375" width="79.6875" y="234.8125" x="826.74999" stroke="#2D2D2D" fill="#FFEBA2"/>
   <rect height="17.1875" width="84.375" y="237.9375" x="931.43749" stroke="#2D2D2D" fill="#FFEBA2"/>
   <rect height="21.875" width="82.8125" y="264.5" x="829.87499" stroke="#2D2D2D" fill="#FFEBA2"/>
   <rect height="20.3125" width="185.9375" y="303.5625" x="1067.37499" stroke="#2D2D2D" fill="#FFEBA2"/>
   <rect height="23.4375" width="21.875" y="333.25" x="1147.06249" stroke="#2D2D2D" fill="#FFEBA2"/>
   <rect height="18.75" width="25" y="334.8125" x="1078.31249" stroke="#2D2D2D" fill="#FFEBA2"/>
   <rect height="21.875" width="214.0625" y="144.1875" x="839.24999" stroke="#2D2D2D" fill="#FFEBA2"/>
   <rect height="26.5625" width="196.875" y="169.1875" x="857.99999" stroke="#2D2D2D" fill="#FFEBA2"/>
   <rect height="20.3125" width="109.375" y="420.75" x="832.99999" stroke="#2D2D2D" fill="#FFEBA2"/>
   <rect height="20.3125" width="71.875" y="422.3125" x="953.31249" stroke="#2D2D2D" fill="#FFEBA2"/>
   <rect height="23.4375" width="107.8125" y="448.875" x="873.62499" stroke="#2D2D2D" fill="#FFEBA2"/>
   <rect height="21.875" width="128.125" y="477" x="867.37499" stroke="#2D2D2D" fill="#FFEBA2"/>
   <rect height="28.125" width="115.625" y="411.375" x="1064.24999" stroke="#2D2D2D" fill="#FFEBA2"/>
   <rect height="20.3125" width="106.25" y="444.1875" x="1061.12499" stroke="#2D2D2D" fill="#FFEBA2"/>
   <rect height="23.4375" width="73.4375" y="441.0625" x="1197.06249" stroke="#2D2D2D" fill="#FFEBA2"/>
  </g>
 </g>
</svg>