<svg xmlns="http://www.w3.org/2000/svg" width="1556" height="948">
 <!-- Created with Image Occlusion Enhanced -->
 <g>
  <title>Labels</title>
 </g>
 <g>
  <title>Masks</title>
  <g id="9854901b73ec45d398bc0679c0879432-ao-1">
   <rect height="24.07407" width="138.88889" y="261.25922" x="1012.51855" stroke="#2D2D2D" fill="#FFEBA2"/>
   <rect height="20.37037" width="124.07408" y="424.22218" x="1101.40744" stroke="#2D2D2D" fill="#FFEBA2"/>
   <rect height="22.22222" width="120.37037" y="603.85182" x="1101.40744" stroke="#2D2D2D" fill="#FFEBA2"/>
   <rect height="53.7037" width="127.77778" y="339.037" x="818.0741" stroke="#2D2D2D" fill="#FFEBA2"/>
   <rect height="20.37037" width="88.88889" y="311.25922" x="818.0741" stroke="#2D2D2D" fill="#FFEBA2"/>
   <rect height="59.25926" width="96.2963" y="231.62959" x="760.66669" stroke="#2D2D2D" fill="#FFEBA2"/>
   <rect height="24.07407" width="138.88889" y="113.11107" x="762.51855" stroke="#2D2D2D" fill="#FFEBA2"/>
   <rect height="18.51852" width="51.85185" y="135.33329" x="764.3704" stroke="#2D2D2D" fill="#FFEBA2"/>
   <rect height="16.66667" width="77.77778" y="181.62959" x="760.66669" stroke="#2D2D2D" fill="#FFEBA2"/>
   <rect height="24.07407" width="79.62963" y="113.11107" x="355.11113" stroke="#2D2D2D" fill="#FFEBA2"/>
   <rect height="18.51852" width="124.07408" y="442.7407" x="429.18521" stroke="#2D2D2D" fill="#FFEBA2"/>
   <rect height="20.37037" width="112.96296" y="461.25922" x="440.29632" stroke="#2D2D2D" fill="#FFEBA2"/>
   <rect height="14.81481" width="114.81482" y="522.37033" x="481.03706" stroke="#2D2D2D" fill="#FFEBA2"/>
   <rect height="16.66667" width="137.03704" y="500.14811" x="475.48151" stroke="#2D2D2D" fill="#FFEBA2"/>
   <rect height="18.51852" width="92.59259" y="551.99996" x="584.74077" stroke="#2D2D2D" fill="#FFEBA2"/>
   <rect height="62.96296" width="109.25926" y="485.3333" x="858.81484" stroke="#2D2D2D" fill="#FFEBA2"/>
   <rect height="16.66667" width="62.96296" y="503.85181" x="981.03707" stroke="#2D2D2D" fill="#FFEBA2"/>
   <rect height="38.88889" width="79.62963" y="344.59255" x="955.11114" stroke="#2D2D2D" fill="#FFEBA2"/>
   <rect height="35.18519" width="75.92593" y="240.88885" x="868.0741" stroke="#2D2D2D" fill="#FFEBA2"/>
   <rect height="100" width="79.62963" y="807.55552" x="668.0741" stroke-linecap="null" stroke-linejoin="null" stroke-dasharray="null" stroke="#2D2D2D" fill="#FFEBA2"/>
   <rect height="79.62963" width="98.14815" y="811.25923" x="1075.48151" stroke-linecap="null" stroke-linejoin="null" stroke-dasharray="null" stroke="#2D2D2D" fill="#FFEBA2"/>
   <rect height="35.18519" width="100" y="798.29626" x="819.92595" stroke-linecap="null" stroke-linejoin="null" stroke-dasharray="null" stroke="#2D2D2D" fill="#FFEBA2"/>
  </g>
 </g>
</svg>