<svg xmlns="http://www.w3.org/2000/svg" width="1362" height="732">
 <!-- Created with Image Occlusion Enhanced -->
 <g>
  <title>Labels</title>
 </g>
 <g>
  <title>Masks</title>
  <g id="c68645d21f694fcdb277809794b82550-ao-1" class="qshape">
   <rect height="37.14286" width="121.42857" y="97.99995" x="57.99996" stroke="#2D2D2D" fill="#FF7E7E" class="qshape"/>
   <rect height="35.71428" width="154.28571" y="100.8571" x="240.8571" stroke="#2D2D2D" fill="#FF7E7E" class="qshape"/>
   <rect height="31.42857" width="84.28571" y="203.71424" x="419.42853" stroke="#2D2D2D" fill="#FF7E7E" class="qshape"/>
   <rect height="32.85714" width="64.28571" y="320.85709" x="479.42852" stroke="#2D2D2D" fill="#FF7E7E" class="qshape"/>
   <rect height="31.42857" width="71.42857" y="270.85709" x="1082.28565" stroke="#2D2D2D" fill="#FF7E7E" class="qshape"/>
   <rect height="28.57143" width="249.99999" y="300.85709" x="1049.42851" stroke="#2D2D2D" fill="#FF7E7E" class="qshape"/>
   <rect height="28.57143" width="172.85714" y="336.57138" x="1046.57137" stroke="#2D2D2D" fill="#FF7E7E" class="qshape"/>
   <rect height="31.42857" width="61.42857" y="367.99995" x="1057.99994" stroke="#2D2D2D" fill="#FF7E7E" class="qshape"/>
   <rect height="34.28571" width="298.57142" y="400.85709" x="1012.28565" stroke="#2D2D2D" fill="#FF7E7E" class="qshape"/>
   <rect height="25.71429" width="175.71428" y="453.71423" x="1007.99994" stroke="#2D2D2D" fill="#FF7E7E" class="qshape"/>
   <rect height="30" width="294.28571" y="483.71423" x="1000.85708" stroke="#2D2D2D" fill="#FF7E7E" class="qshape"/>
   <rect height="27.14286" width="269.99999" y="542.28566" x="975.1428" stroke="#2D2D2D" fill="#FF7E7E" class="qshape"/>
   <rect height="34.28571" width="252.85714" y="595.1428" x="972.28565" stroke="#2D2D2D" fill="#FF7E7E" class="qshape"/>
   <rect height="30" width="209.99999" y="645.1428" x="905.1428" stroke="#2D2D2D" fill="#FF7E7E" class="qshape"/>
   <rect height="32.85714" width="294.28571" y="625.1428" x="217.99996" stroke="#2D2D2D" fill="#FF7E7E" class="qshape"/>
   <rect height="34.28571" width="301.42856" y="567.99994" x="233.71424" stroke="#2D2D2D" fill="#FF7E7E" class="qshape"/>
   <rect height="31.42857" width="194.28571" y="503.71423" x="275.14282" stroke="#2D2D2D" fill="#FF7E7E" class="qshape"/>
   <rect height="31.42857" width="309.99999" y="456.57137" x="175.14282" stroke="#2D2D2D" fill="#FF7E7E" class="qshape"/>
   <rect height="37.14286" width="281.42856" y="396.57138" x="225.14282" stroke="#2D2D2D" fill="#FF7E7E" class="qshape"/>
  </g>
 </g>
</svg>