<svg xmlns="http://www.w3.org/2000/svg" width="1556" height="920">
 <!-- Created with Image Occlusion Enhanced -->
 <g>
  <title>Labels</title>
 </g>
 <g>
  <title>Masks</title>
  <g id="d65737641c42485bb702493377554d75-ao-1" class="qshape">
   <rect height="48.21429" width="107.14286" y="394.28568" x="765.42861" stroke="#2D2D2D" fill="#FF7E7E" class="qshape"/>
   <rect height="25" width="144.64286" y="131.78568" x="206.50003" stroke="#2D2D2D" fill="#FF7E7E" class="qshape"/>
   <rect height="25" width="139.28572" y="210.35711" x="11.85717" stroke="#2D2D2D" fill="#FF7E7E" class="qshape"/>
   <rect height="46.42857" width="105.35714" y="308.57139" x="4.71431" stroke="#2D2D2D" fill="#FF7E7E" class="qshape"/>
   <rect height="19.64286" width="89.28572" y="126.42853" x="452.92861" stroke="#2D2D2D" fill="#FF7E7E" class="qshape"/>
   <rect height="21.42857" width="66.07143" y="129.99996" x="554.71432" stroke="#2D2D2D" fill="#FF7E7E" class="qshape"/>
   <rect height="50" width="78.57143" y="129.99996" x="761.85718" stroke="#2D2D2D" fill="#FF7E7E" class="qshape"/>
   <rect height="23.21429" width="126.78572" y="669.28569" x="624.35718" stroke="#2D2D2D" fill="#FF7E7E" class="qshape"/>
   <rect height="42.85714" width="112.5" y="699.64283" x="629.71432" stroke="#2D2D2D" fill="#FF7E7E" class="qshape"/>
   <rect height="17.85714" width="66.07143" y="697.85711" x="538.64289" stroke="#2D2D2D" fill="#FF7E7E" class="qshape"/>
   <rect height="23.21429" width="87.5" y="835.35712" x="540.42861" stroke="#2D2D2D" fill="#FF7E7E" class="qshape"/>
   <rect height="62.5" width="171.42857" y="533.5714" x="10.07145" stroke="#2D2D2D" fill="#FF7E7E" class="qshape"/>
   <rect height="14.28571" width="82.14286" y="408.5714" x="435.07146" stroke="#2D2D2D" fill="#FF7E7E" class="qshape"/>
   <rect height="21.42857" width="64.28572" y="426.42854" x="429.71432" stroke="#2D2D2D" fill="#FF7E7E" class="qshape"/>
   <rect height="21.42857" width="67.85714" y="356.78568" x="427.9286" stroke="#2D2D2D" fill="#FF7E7E" class="qshape"/>
   <rect height="23.21429" width="141.07143" y="387.14282" x="11.85717" stroke="#2D2D2D" fill="#FF7E7E" class="qshape"/>
   <rect height="28.57143" width="116.07143" y="379.99997" x="1338.64291" stroke="#2D2D2D" fill="#FF7E7E" class="qshape"/>
   <rect height="39.28571" width="92.85714" y="322.85711" x="1199.35719" stroke="#2D2D2D" fill="#FF7E7E" class="qshape"/>
   <rect height="19.64286" width="92.85714" y="369.28568" x="1056.50004" stroke="#2D2D2D" fill="#FF7E7E" class="qshape"/>
   <rect height="17.85714" width="164.28572" y="247.85711" x="1051.1429" stroke="#2D2D2D" fill="#FF7E7E" class="qshape"/>
   <rect height="23.21429" width="126.78572" y="165.71425" x="1045.78576" stroke="#2D2D2D" fill="#FF7E7E" class="qshape"/>
   <rect height="19.64286" width="151.78572" y="231.78568" x="1326.14291" stroke="#2D2D2D" fill="#FF7E7E" class="qshape"/>
   <rect height="19.64286" width="133.92857" y="263.92854" x="1324.35719" stroke="#2D2D2D" fill="#FF7E7E" class="qshape"/>
  </g>
 </g>
</svg>