<svg xmlns="http://www.w3.org/2000/svg" width="1542" height="890">
 <!-- Created with Image Occlusion Enhanced -->
 <g>
  <title>Labels</title>
 </g>
 <g>
  <title>Masks</title>
  
  <g id="e711271aa82d4df59a58b06a21d63966-ao-1">
   <rect height="31.03448" width="63.7931" y="294.48272" x="908.00004" stroke="#2D2D2D" fill="#FFEBA2"/>
   <rect height="32.75862" width="136.2069" y="411.72411" x="266.62072" stroke="#2D2D2D" fill="#FFEBA2"/>
   <rect height="27.58621" width="155.17242" y="415.17238" x="414.89658" stroke="#2D2D2D" fill="#FFEBA2"/>
   <rect height="29.31035" width="189.65518" y="444.48273" x="20.06899" stroke="#2D2D2D" fill="#FFEBA2"/>
   <rect height="25.86207" width="339.65518" y="447.931" x="480.41383" stroke="#2D2D2D" fill="#FFEBA2"/>
   <rect height="24.13793" width="50" y="449.65514" x="1251.10349" stroke="#2D2D2D" fill="#FFEBA2"/>
   <rect height="27.58621" width="153.44828" y="477.24135" x="40.75865" stroke="#2D2D2D" fill="#FFEBA2"/>
   <rect height="27.58621" width="141.37931" y="511.72411" x="20.06899" stroke="#2D2D2D" fill="#FFEBA2"/>
   <rect height="34.48276" width="94.82759" y="578.96549" x="556.2759" stroke="#2D2D2D" fill="#FFEBA2"/>
   <rect height="44.82759" width="62.06897" y="573.79307" x="668.34486" stroke="#2D2D2D" fill="#FFEBA2"/>
   <rect height="46.55172" width="286.2069" y="573.79307" x="747.65521" stroke="#2D2D2D" fill="#FFEBA2"/>
   <rect height="39.65517" width="177.58621" y="578.96549" x="1056.2759" stroke="#2D2D2D" fill="#FFEBA2"/>
   <rect height="36.2069" width="60.34483" y="659.99997" x="723.51728" stroke="#2D2D2D" fill="#FFEBA2"/>
   <rect height="43.10345" width="193.10345" y="658.27583" x="892.4828" stroke="#2D2D2D" fill="#FFEBA2"/>
   <rect height="32.75862" width="165.51724" y="665.17239" x="1102.82763" stroke="#2D2D2D" fill="#FFEBA2"/>
   <rect height="34.48276" width="193.10345" y="708.27583" x="20.06899" stroke="#2D2D2D" fill="#FFEBA2"/>
   <rect height="44.82759" width="217.24138" y="701.37928" x="242.48279" stroke="#2D2D2D" fill="#FFEBA2"/>
   <rect height="27.58621" width="87.93104" y="813.44825" x="306.27589" stroke="#2D2D2D" fill="#FFEBA2"/>
   <rect height="25.86207" width="91.37931" y="816.89653" x="406.27589" stroke="#2D2D2D" fill="#FFEBA2"/>
   <rect height="27.58621" width="144.82759" y="782.41377" x="433.8621" stroke="#2D2D2D" fill="#FFEBA2"/>
   <rect height="29.31035" width="143.10345" y="811.72411" x="556.2759" stroke="#2D2D2D" fill="#FFEBA2"/>
  </g>
 </g>
</svg>